<svg xmlns="http://www.w3.org/2000/svg" xmlns:xlink="http://www.w3.org/1999/xlink" xml:space="preserve" version="1.1" style="shape-rendering:geometricPrecision;text-rendering:geometricPrecision;image-rendering:optimizeQuality;" viewBox="0 0 333 416.25" x="0px" y="0px" fill-rule="evenodd" clip-rule="evenodd"><defs><style type="text/css">
   
    .fil0 {fill:black;fill-rule:nonzero}
   
  </style></defs><g><path class="fil0" d="M167 43c38,0 69,31 69,69 0,27 -17,52 -42,63 55,13 94,60 95,115l-16 0c-3,-56 -49,-101 -106,-101 -58,0 -104,45 -106,101l-17 0c2,-55 41,-102 95,-115 -25,-11 -41,-36 -41,-63 0,-38 31,-69 69,-69zm0 17c-29,0 -53,23 -53,52 0,29 24,52 53,52 29,0 52,-23 52,-52 0,-29 -23,-52 -52,-52z"/></g><text x="0" y="348" fill="#000000" font-size="5px" font-weight="bold" font-family="'Helvetica Neue', Helvetica, Arial-Unicode, Arial, Sans-serif">Created by Artnadhifa</text><text x="0" y="353" fill="#000000" font-size="5px" font-weight="bold" font-family="'Helvetica Neue', Helvetica, Arial-Unicode, Arial, Sans-serif">from the Noun Project</text></svg>