<svg xmlns="http://www.w3.org/2000/svg" data-name="Layer 1" viewBox="0 0 100 125" x="0px" y="0px"><title>Artboard 7</title><g><circle cx="39.5" cy="38.5" r="3.5"/><circle cx="60.5" cy="38.5" r="3.5"/><path d="M39.5,57H47v9H34A11,11,0,0,0,23,77v3h6V77a5,5,0,0,1,5-5H66a5,5,0,0,1,5,5v3h6V77A11,11,0,0,0,66,66H53V57h7.5a18.5,18.5,0,0,0,0-37h-21a18.5,18.5,0,0,0,0,37Zm0-31h21a12.5,12.5,0,0,1,0,25h-21a12.5,12.5,0,0,1,0-25Z"/></g><text x="0" y="115" fill="#000000" font-size="5px" font-weight="bold" font-family="'Helvetica Neue', Helvetica, Arial-Unicode, Arial, Sans-serif">Created by Gregor Cresnar</text><text x="0" y="120" fill="#000000" font-size="5px" font-weight="bold" font-family="'Helvetica Neue', Helvetica, Arial-Unicode, Arial, Sans-serif">from the Noun Project</text></svg>